<svg width="30" height="30" viewBox="0 0 30 30" fill="none" xmlns="http://www.w3.org/2000/svg">
<mask id="path-1-inside-1_3110_42" fill="white">
<path d="M14.9968 0.933838C9.31243 0.933838 4.68518 5.5611 4.68518 11.2454C4.68518 21.2474 14.4154 28.8512 14.4154 28.8512C14.5815 28.9838 14.7877 29.0559 15.0002 29.0559C15.2127 29.0559 15.4189 28.9838 15.585 28.8512C15.585 28.8512 25.3153 21.2474 25.3153 11.2454C25.3152 5.5611 20.6811 0.933838 14.9968 0.933838ZM14.9968 2.8093C19.6678 2.8093 23.4398 6.57442 23.4398 11.2454C23.4398 19.4278 16.0305 25.8925 15.0037 26.7681C13.9817 25.8969 6.56064 19.431 6.56064 11.2454C6.56064 6.57442 10.3258 2.8093 14.9968 2.8093Z"/>
</mask>
<path d="M14.9968 0.933838C9.31243 0.933838 4.68518 5.5611 4.68518 11.2454C4.68518 21.2474 14.4154 28.8512 14.4154 28.8512C14.5815 28.9838 14.7877 29.0559 15.0002 29.0559C15.2127 29.0559 15.4189 28.9838 15.585 28.8512C15.585 28.8512 25.3153 21.2474 25.3153 11.2454C25.3152 5.5611 20.6811 0.933838 14.9968 0.933838ZM14.9968 2.8093C19.6678 2.8093 23.4398 6.57442 23.4398 11.2454C23.4398 19.4278 16.0305 25.8925 15.0037 26.7681C13.9817 25.8969 6.56064 19.431 6.56064 11.2454C6.56064 6.57442 10.3258 2.8093 14.9968 2.8093Z" fill="#EEB858"/>
<path d="M4.68518 11.2454L2.68518 11.2454L4.68518 11.2454ZM14.4154 28.8512L15.6628 27.2879L15.6549 27.2816L15.6469 27.2753L14.4154 28.8512ZM15.585 28.8512V26.8512H14.8849L14.3376 27.2879L15.585 28.8512ZM25.3153 11.2454L27.3153 11.2454L25.3153 11.2454ZM23.4398 11.2454L25.4398 11.2454L23.4398 11.2454ZM15.0037 26.7681L13.7062 28.2901L15.0038 29.3964L16.3014 28.29L15.0037 26.7681ZM6.56064 11.2454L8.56064 11.2454L6.56064 11.2454ZM14.9968 -1.06616C8.20786 -1.06616 2.68518 4.45653 2.68518 11.2454L6.68518 11.2454C6.68518 6.66567 10.417 2.93384 14.9968 2.93384V-1.06616ZM2.68518 11.2454C2.68518 16.8825 5.4133 21.7129 7.96714 25.0212C9.25921 26.695 10.5481 28.0331 11.5155 28.9548C12.0003 29.4167 12.4073 29.7769 12.6977 30.0252C12.843 30.1494 12.9594 30.2458 13.042 30.3132C13.0833 30.3469 13.1161 30.3733 13.14 30.3923C13.1519 30.4019 13.1616 30.4095 13.1689 30.4153C13.1726 30.4182 13.1757 30.4207 13.1782 30.4226C13.1795 30.4236 13.1806 30.4245 13.1815 30.4252C13.182 30.4256 13.1826 30.4261 13.1828 30.4263C13.1834 30.4267 13.1839 30.4271 14.4154 28.8512C15.6469 27.2753 15.6474 27.2757 15.6478 27.276C15.6479 27.2761 15.6483 27.2764 15.6485 27.2765C15.6488 27.2768 15.649 27.277 15.6491 27.277C15.6493 27.2772 15.6488 27.2768 15.6478 27.276C15.6458 27.2744 15.6415 27.2711 15.635 27.2659C15.6221 27.2555 15.6003 27.2381 15.5704 27.2136C15.5104 27.1647 15.4177 27.088 15.2969 26.9848C15.0552 26.7781 14.7021 26.4661 14.2747 26.0589C13.4176 25.2422 12.274 24.0544 11.1335 22.5769C8.82219 19.5828 6.68518 15.6103 6.68518 11.2454L2.68518 11.2454ZM13.168 30.4145C13.6885 30.8299 14.3346 31.0559 15.0002 31.0559V27.0559C15.2409 27.0559 15.4745 27.1377 15.6628 27.2879L13.168 30.4145ZM15.0002 31.0559C15.6659 31.0559 16.3119 30.8299 16.8324 30.4145L14.3376 27.2879C14.5259 27.1377 14.7596 27.0559 15.0002 27.0559V31.0559ZM15.585 28.8512C16.8165 30.4271 16.817 30.4267 16.8176 30.4263C16.8178 30.4261 16.8184 30.4256 16.8189 30.4252C16.8199 30.4245 16.821 30.4236 16.8222 30.4226C16.8247 30.4207 16.8278 30.4182 16.8315 30.4153C16.8388 30.4095 16.8485 30.4019 16.8604 30.3923C16.8843 30.3733 16.9172 30.3469 16.9585 30.3132C17.0411 30.2458 17.1574 30.1494 17.3027 30.0252C17.5931 29.7769 18.0002 29.4167 18.485 28.9548C19.4523 28.0331 20.7412 26.695 22.0333 25.0212C24.5871 21.7129 27.3153 16.8825 27.3153 11.2454L23.3153 11.2454C23.3153 15.6103 21.1783 19.5828 18.867 22.5769C17.7265 24.0544 16.5828 25.2422 15.7257 26.0589C15.2983 26.4661 14.9452 26.7781 14.7035 26.9848C14.5827 27.088 14.49 27.1647 14.4301 27.2136C14.4001 27.2381 14.3784 27.2555 14.3654 27.2659C14.3589 27.2711 14.3546 27.2744 14.3526 27.276C14.3516 27.2768 14.3512 27.2772 14.3513 27.277C14.3514 27.277 14.3516 27.2768 14.352 27.2765C14.3522 27.2764 14.3525 27.2761 14.3526 27.276C14.353 27.2757 14.3535 27.2753 15.585 28.8512ZM27.3153 11.2454C27.3152 4.45479 21.7839 -1.06616 14.9968 -1.06616V2.93384C19.5783 2.93384 23.3152 6.66741 23.3153 11.2454L27.3153 11.2454ZM14.9968 4.8093C18.5653 4.8093 21.4398 7.68112 21.4398 11.2454L25.4398 11.2454C25.4398 5.46771 20.7702 0.809299 14.9968 0.809299V4.8093ZM21.4398 11.2454C21.4398 14.7433 19.8455 17.9947 17.9842 20.5775C16.1388 23.1383 14.1668 24.8534 13.706 25.2463L16.3014 28.29C16.8674 27.8073 19.1135 25.8522 21.2294 22.9161C23.3294 20.0021 25.4398 15.93 25.4398 11.2454L21.4398 11.2454ZM16.3012 25.2462C15.8422 24.8548 13.8685 23.1404 12.0209 20.5795C10.1573 17.9964 8.56064 14.7442 8.56064 11.2454L4.56064 11.2454C4.56064 15.9323 6.67457 20.0058 8.77699 22.9199C10.8954 25.8561 13.1432 27.8102 13.7062 28.2901L16.3012 25.2462ZM8.56064 11.2454C8.56064 7.67898 11.4303 4.8093 14.9968 4.8093V0.809299C9.22118 0.809299 4.56064 5.46985 4.56064 11.2454L8.56064 11.2454Z" fill="#EEB858" mask="url(#path-1-inside-1_3110_42)"/>
<path d="M14.9968 6.5603C12.4191 6.5603 10.3116 8.66778 10.3116 11.2455C10.3116 13.8233 12.419 15.9376 14.9968 15.9376C17.5745 15.9376 19.6889 13.8233 19.6889 11.2455C19.6889 8.66778 17.5745 6.5603 14.9968 6.5603ZM14.9968 8.43576C16.5612 8.43576 17.8134 9.68109 17.8134 11.2455C17.8134 12.8099 16.5612 14.0621 14.9968 14.0621C13.4324 14.0621 12.187 12.8099 12.187 11.2455C12.1871 9.68109 13.4324 8.43576 14.9968 8.43576Z" fill="#EEB858"/>
</svg>
