<svg width="374" height="199" viewBox="0 0 374 199" fill="none" xmlns="http://www.w3.org/2000/svg">
<path d="M4 75.583C4 74.4784 3.10457 73.583 2 73.583C0.89543 73.583 0 74.4784 0 75.583H4ZM34.4946 137.503L35.9223 136.102L35.8664 136.045L35.806 135.993L34.4946 137.503ZM175.511 92.7943L177.488 92.4908L175.511 92.7943ZM129.825 90L131.116 91.5281L129.825 90ZM136.903 187.8L138.119 186.211L138.034 186.146L137.942 186.091L136.903 187.8ZM360.449 0.621619C359.688 -0.17873 358.422 -0.210419 357.622 0.550839L344.579 12.9563C343.779 13.7175 343.747 14.9835 344.508 15.7838C345.27 16.5842 346.536 16.6158 347.336 15.8546L358.929 4.82754L369.956 16.4208C370.718 17.2212 371.983 17.2529 372.784 16.4916C373.584 15.7303 373.616 14.4644 372.855 13.6641L360.449 0.621619ZM167.146 135.826L168.656 137.137L168.752 137.027L168.831 136.904L167.146 135.826ZM1.03905 84.859C1.26074 85.9411 2.31767 86.6386 3.39977 86.4169C4.48186 86.1952 5.17935 85.1383 4.95766 84.0562L1.03905 84.859ZM10.4326 100.612C9.98595 99.6015 8.80489 99.1446 7.79467 99.5913C6.78445 100.038 6.32761 101.219 6.77428 102.229L10.4326 100.612ZM15.4499 118.23C16.0512 119.157 17.2898 119.421 18.2163 118.819C19.1429 118.218 19.4066 116.979 18.8053 116.053L15.4499 118.23ZM29.5406 129.914C28.7887 129.104 27.5232 129.058 26.7141 129.81C25.9049 130.562 25.8584 131.827 26.6102 132.636L29.5406 129.914ZM40.3034 145.312C41.1617 146.008 42.4211 145.875 43.1164 145.017C43.8117 144.159 43.6795 142.899 42.8212 142.204L40.3034 145.312ZM58.0965 152.821C57.1453 152.259 55.919 152.575 55.3575 153.526C54.7959 154.477 55.1118 155.704 56.063 156.265L58.0965 152.821ZM73.3771 164.658C74.4094 165.051 75.5648 164.533 75.9576 163.501C76.3505 162.468 75.8321 161.313 74.7997 160.92L73.3771 164.658ZM92.6429 165.695C91.5509 165.529 90.5308 166.279 90.3643 167.371C90.1979 168.463 90.9481 169.483 92.0401 169.649L92.6429 165.695ZM111.394 170.168C112.492 170.054 113.291 169.072 113.178 167.973C113.064 166.874 112.081 166.076 110.983 166.189L111.394 170.168ZM128.798 161.891C127.767 162.289 127.254 163.446 127.652 164.477C128.05 165.507 129.208 166.02 130.238 165.622L128.798 161.891ZM147.298 156.551C148.209 155.926 148.441 154.681 147.816 153.771C147.191 152.86 145.946 152.628 145.035 153.253L147.298 156.551ZM159.272 141.344C158.489 142.123 158.486 143.39 159.265 144.172C160.045 144.955 161.311 144.958 162.094 144.179L159.272 141.344ZM174.124 126.611C174.532 125.585 174.031 124.422 173.004 124.014C171.978 123.606 170.815 124.107 170.407 125.133L174.124 126.611ZM174.377 103.961C174.375 105.065 175.268 105.963 176.373 105.965C177.477 105.968 178.375 105.074 178.377 103.97L174.377 103.961ZM167.779 81.4297C166.803 80.9126 165.593 81.2847 165.076 82.2608C164.559 83.2369 164.931 84.4473 165.907 84.9644L167.779 81.4297ZM141.857 84.7123C142.87 84.2729 143.336 83.0952 142.896 82.0818C142.457 81.0683 141.279 80.6029 140.266 81.0423L141.857 84.7123ZM122.029 95.8856C121.398 96.7917 121.62 98.0383 122.527 98.67C123.433 99.3016 124.679 99.0791 125.311 98.1729L122.029 95.8856ZM117.066 114.376C117.447 113.339 116.914 112.19 115.877 111.809C114.84 111.429 113.691 111.962 113.311 112.999L117.066 114.376ZM108.781 131.621C108.648 132.718 109.428 133.715 110.525 133.848C111.621 133.982 112.618 133.201 112.752 132.105L108.781 131.621ZM113.018 150.219C112.838 149.129 111.809 148.391 110.719 148.571C109.629 148.751 108.892 149.78 109.072 150.87L113.018 150.219ZM115.479 169.127C116.027 170.086 117.249 170.418 118.208 169.87C119.166 169.321 119.499 168.099 118.95 167.14L115.479 169.127ZM130.551 180.834C129.703 180.127 128.442 180.242 127.735 181.09C127.028 181.939 127.143 183.2 127.991 183.907L130.551 180.834ZM144.653 193.871C145.696 194.235 146.836 193.685 147.2 192.642C147.564 191.599 147.014 190.459 145.971 190.095L144.653 193.871ZM164.101 193.99C163.004 193.858 162.008 194.641 161.877 195.737C161.745 196.834 162.527 197.83 163.624 197.961L164.101 193.99ZM182.89 198.997C183.995 198.99 184.885 198.089 184.878 196.984C184.871 195.88 183.97 194.99 182.865 194.997L182.89 198.997ZM201.595 193.885C200.498 194.007 199.707 194.996 199.829 196.094C199.951 197.192 200.94 197.983 202.038 197.86L201.595 193.885ZM220.988 194.782C222.068 194.551 222.756 193.488 222.524 192.408C222.293 191.328 221.229 190.64 220.149 190.871L220.988 194.782ZM238.306 186.003C237.255 186.344 236.679 187.471 237.02 188.522C237.36 189.573 238.488 190.149 239.539 189.808L238.306 186.003ZM257.483 182.921C258.492 182.471 258.944 181.288 258.493 180.279C258.042 179.271 256.859 178.819 255.851 179.27L257.483 182.921ZM272.519 170.67C271.568 171.232 271.252 172.458 271.813 173.409C272.375 174.36 273.601 174.677 274.552 174.115L272.519 170.67ZM290.498 163.401C291.377 162.732 291.547 161.477 290.878 160.599C290.209 159.72 288.954 159.55 288.075 160.219L290.498 163.401ZM302.288 147.976C301.496 148.746 301.479 150.013 302.249 150.804C303.019 151.596 304.285 151.614 305.077 150.844L302.288 147.976ZM318.021 136.64C318.715 135.781 318.58 134.522 317.721 133.828C316.861 133.134 315.602 133.268 314.908 134.128L318.021 136.64ZM325.814 118.872C325.225 119.806 325.504 121.041 326.438 121.631C327.372 122.221 328.607 121.941 329.197 121.007L325.814 118.872ZM338.53 104.243C339.015 103.251 338.603 102.053 337.611 101.569C336.618 101.084 335.421 101.495 334.936 102.488L338.53 104.243ZM342.341 85.1454C341.957 86.1813 342.486 87.3319 343.522 87.7152C344.558 88.0985 345.709 87.5694 346.092 86.5335L342.341 85.1454ZM351.902 68.3288C352.192 67.2628 351.562 66.164 350.496 65.8745C349.431 65.5851 348.332 66.2145 348.042 67.2805L351.902 68.3288ZM352.23 48.9552C352.026 50.0408 352.74 51.0862 353.826 51.2902C354.912 51.4942 355.957 50.7796 356.161 49.694L352.23 48.9552ZM359.017 30.7891C359.144 29.6919 358.358 28.6992 357.261 28.5719C356.164 28.4445 355.171 29.2307 355.044 30.3279L359.017 30.7891ZM356.625 11.5323C356.566 12.6353 357.412 13.5774 358.515 13.6366C359.618 13.6958 360.56 12.8497 360.619 11.7467L356.625 11.5323ZM0 75.583C0 78.4299 0.362834 81.5584 1.03905 84.859L4.95766 84.0562C4.32249 80.956 4 78.1021 4 75.583H0ZM6.77428 102.229C9.13444 107.567 12.0564 113.001 15.4499 118.23L18.8053 116.053C15.5276 111.002 12.7069 105.755 10.4326 100.612L6.77428 102.229ZM26.6102 132.636C28.7061 134.892 30.9005 137.03 33.1831 139.013L35.806 135.993C33.6396 134.111 31.5473 132.073 29.5406 129.914L26.6102 132.636ZM34.4946 137.503C33.0668 138.903 33.067 138.903 33.0671 138.904C33.0672 138.904 33.0673 138.904 33.0674 138.904C33.0677 138.904 33.068 138.904 33.0683 138.905C33.0689 138.905 33.0697 138.906 33.0707 138.907C33.0726 138.909 33.0751 138.912 33.0783 138.915C33.0846 138.921 33.0933 138.93 33.1045 138.941C33.127 138.964 33.1592 138.996 33.2011 139.038C33.2849 139.122 33.4074 139.243 33.5676 139.398C33.888 139.709 34.3592 140.159 34.9731 140.724C36.2005 141.854 37.9993 143.446 40.3034 145.312L42.8212 142.204C40.5897 140.396 38.8546 138.861 37.6821 137.781C37.0959 137.242 36.6507 136.816 36.3546 136.529C36.2065 136.385 36.0958 136.276 36.0234 136.204C35.9872 136.168 35.9606 136.141 35.9437 136.124C35.9352 136.115 35.9292 136.109 35.9257 136.106C35.9239 136.104 35.9227 136.103 35.9221 136.102C35.9219 136.102 35.9217 136.102 35.9218 136.102C35.9218 136.102 35.9218 136.102 35.9219 136.102C35.922 136.102 35.9221 136.102 35.9221 136.102C35.9222 136.102 35.9223 136.102 34.4946 137.503ZM56.063 156.265C61.1739 159.282 66.9978 162.231 73.3771 164.658L74.7997 160.92C68.667 158.586 63.0475 155.744 58.0965 152.821L56.063 156.265ZM92.0401 169.649C98.2218 170.592 104.707 170.859 111.394 170.168L110.983 166.189C104.666 166.842 98.5231 166.591 92.6429 165.695L92.0401 169.649ZM130.238 165.622C135.889 163.441 141.593 160.464 147.298 156.551L145.035 153.253C139.578 156.996 134.149 159.825 128.798 161.891L130.238 165.622ZM162.094 144.179C164.29 141.992 166.478 139.648 168.656 137.137L165.635 134.516C163.518 136.956 161.396 139.229 159.272 141.344L162.094 144.179ZM168.831 136.904C170.79 133.841 172.61 130.419 174.124 126.611L170.407 125.133C168.996 128.682 167.297 131.878 165.461 134.749L168.831 136.904ZM178.377 103.97C178.385 100.348 178.107 96.5242 177.488 92.4908L173.534 93.0978C174.123 96.9336 174.385 100.551 174.377 103.961L178.377 103.97ZM177.488 92.4908C177.173 90.4403 176.01 88.3622 174.375 86.5067C172.718 84.627 170.472 82.8563 167.779 81.4297L165.907 84.9644C168.216 86.1875 170.067 87.6687 171.374 89.1519C172.703 90.6593 173.374 92.055 173.534 93.0978L177.488 92.4908ZM140.266 81.0423C136.433 82.7039 132.496 85.1273 128.535 88.4719L131.116 91.5281C134.805 88.4131 138.412 86.2055 141.857 84.7123L140.266 81.0423ZM128.535 88.4719C126.368 90.3022 124.153 92.8397 122.029 95.8856L125.311 98.1729C127.3 95.32 129.289 93.0709 131.116 91.5281L128.535 88.4719ZM113.311 112.999C111.207 118.737 109.58 125.058 108.781 131.621L112.752 132.105C113.51 125.876 115.058 119.855 117.066 114.376L113.311 112.999ZM109.072 150.87C110.103 157.117 112.143 163.299 115.479 169.127L118.95 167.14C115.874 161.767 113.98 156.044 113.018 150.219L109.072 150.87ZM127.991 183.907C130.366 185.886 132.986 187.758 135.864 189.509L137.942 186.091C135.226 184.439 132.769 182.681 130.551 180.834L127.991 183.907ZM135.688 189.388C137.896 191.078 140.961 192.583 144.653 193.871L145.971 190.095C142.496 188.882 139.865 187.547 138.119 186.211L135.688 189.388ZM163.624 197.961C169.47 198.663 175.949 199.04 182.89 198.997L182.865 194.997C176.082 195.039 169.771 194.67 164.101 193.99L163.624 197.961ZM202.038 197.86C208.176 197.177 214.523 196.168 220.988 194.782L220.149 190.871C213.819 192.228 207.605 193.216 201.595 193.885L202.038 197.86ZM239.539 189.808C245.513 187.872 251.516 185.589 257.483 182.921L255.851 179.27C250.02 181.877 244.15 184.109 238.306 186.003L239.539 189.808ZM274.552 174.115C279.972 170.917 285.305 167.356 290.498 163.401L288.075 160.219C283.011 164.075 277.809 167.549 272.519 170.67L274.552 174.115ZM305.077 150.844C309.569 146.475 313.898 141.748 318.021 136.64L314.908 134.128C310.887 139.109 306.667 143.717 302.288 147.976L305.077 150.844ZM329.197 121.007C332.516 115.748 335.638 110.166 338.53 104.243L334.936 102.488C332.106 108.281 329.056 113.737 325.814 118.872L329.197 121.007ZM346.092 86.5335C348.235 80.7434 350.178 74.6788 351.902 68.3288L348.042 67.2805C346.348 73.5185 344.441 79.4696 342.341 85.1454L346.092 86.5335ZM356.161 49.694C357.302 43.624 358.258 37.3249 359.017 30.7891L355.044 30.3279C354.295 36.7736 353.353 42.98 352.23 48.9552L356.161 49.694ZM360.619 11.7467C360.79 8.56531 360.917 5.33333 360.999 2.05005L357.001 1.94995C356.919 5.19572 356.794 8.38958 356.625 11.5323L360.619 11.7467Z" fill="#334551"/>
</svg>
