<svg width="78" height="36" viewBox="0 0 78 36" fill="none" xmlns="http://www.w3.org/2000/svg">
<path fill-rule="evenodd" clip-rule="evenodd" d="M76.0577 2.22401C74.889 0.601026 74.8891 0.600909 74.8892 0.600856L74.8889 0.601058L74.8868 0.602577L74.8764 0.610035L74.8313 0.642281C74.7905 0.671358 74.7284 0.715422 74.646 0.773463C74.4813 0.889557 74.2353 1.06153 73.9156 1.28137C73.276 1.72111 72.3422 2.35189 71.1739 3.10958C68.8352 4.62623 65.5669 6.64499 61.8459 8.65626C54.2892 12.7408 45.2771 16.5621 38.4101 16.4892C31.578 16.4168 22.6777 12.4457 15.2302 8.24512C11.5629 6.1767 8.34601 4.1104 6.0454 2.56051C4.89606 1.78621 3.9778 1.14242 3.34909 0.693844C3.0348 0.469599 2.79302 0.294254 2.63108 0.175915C2.55012 0.116751 2.48913 0.0718456 2.44903 0.0422149L2.40466 0.00935395L2.39444 0.00175773L2.39236 0.000208832L2.39208 0C2.39216 5.6447e-05 2.39232 0.000174121 1.19579 1.60278C-0.00072762 3.20538 -0.000401585 3.20563 1.54766e-05 3.20594L0.0012742 3.20688L0.0053234 3.20989L0.0195261 3.22045L0.0720236 3.25933C0.117614 3.29302 0.184248 3.34207 0.271013 3.40548C0.444527 3.53228 0.6986 3.71651 1.02587 3.95002C1.68032 4.41695 2.62814 5.08138 3.8105 5.87792C6.17331 7.46971 9.48235 9.5956 13.2651 11.7292C14.3362 12.3333 15.4536 12.9429 16.6056 13.5443L6.4052 22.7714L9.08856 25.7378L20.4581 15.4532C25.195 17.6685 30.2626 19.5291 34.9561 20.2114L34.4078 35.458L38.4053 35.6017L38.9488 20.4876C43.3802 20.4194 48.3312 19.0629 53.128 17.1797L63.3241 29.8063L66.4361 27.2933L56.9592 15.5574C59.3394 14.4799 61.6322 13.3187 63.7479 12.1751C67.5863 10.1004 70.9484 8.02332 73.3503 6.46562C74.5522 5.68614 75.5162 5.03512 76.1819 4.57736C76.5149 4.34844 76.7734 4.16774 76.9499 4.04334C77.0382 3.98114 77.106 3.933 77.1524 3.89994L77.2058 3.86178L77.2203 3.85142L77.2244 3.84845L77.2257 3.84753C77.2261 3.84723 77.2264 3.84699 76.0577 2.22401Z" fill="#717171"/>
</svg>
