<svg width="78" height="68" viewBox="0 0 78 68" fill="none" xmlns="http://www.w3.org/2000/svg">
<path fill-rule="evenodd" clip-rule="evenodd" d="M42.1324 15.3612C46.6068 15.9738 51.4293 17.6519 55.9855 19.6895L68.3839 8.28562L71.0918 11.2297L59.8799 21.5422C61.2698 22.2411 62.6141 22.9558 63.893 23.6631C67.6933 25.7652 71.0199 27.8636 73.3958 29.4357C74.5848 30.2224 75.5381 30.879 76.1964 31.3404C76.5256 31.5712 76.7812 31.7533 76.9557 31.8787C77.043 31.9414 77.11 31.9899 77.1559 32.0232L77.2087 32.0616L77.223 32.0721L77.2271 32.0751L77.2284 32.076C77.2288 32.0763 77.2291 32.0765 76.0736 33.6513L76.1814 33.801C77.3501 35.4239 77.3498 35.4242 77.3494 35.4245L77.3481 35.4254L77.344 35.4284L77.3295 35.4387L77.2761 35.4769C77.2297 35.51 77.1619 35.5581 77.0736 35.6203C76.897 35.7447 76.6385 35.9254 76.3056 36.1543C75.6399 36.6121 74.6759 37.2631 73.474 38.0426C71.0721 39.6003 67.71 41.6774 63.8716 43.7521C61.7558 44.8957 59.4631 46.0569 57.0829 47.1344L66.5598 58.8702L63.4478 61.3833L53.2516 48.7567C48.4549 50.6398 43.5039 51.9963 39.0724 52.0645L38.5289 67.1787L34.5315 67.035L35.0798 51.7883C30.3863 51.106 25.3187 49.2455 20.5818 47.0302L9.21224 57.3148L6.52889 54.3484L16.7293 45.1213C15.5773 44.5199 14.4599 43.9102 13.3888 43.3061C9.60604 41.1726 6.297 39.0467 3.93419 37.4549C2.75183 36.6583 1.80401 35.9939 1.14956 35.527C0.822288 35.2935 0.568216 35.1092 0.394702 34.9824C0.307937 34.919 0.241302 34.87 0.195712 34.8363L0.143215 34.7974L0.129012 34.7869L0.124963 34.7838L0.123704 34.7829C0.123319 34.7826 0.123012 34.7824 1.06147 33.5253C-0.000714893 32.0758 -0.000389738 32.0755 1.57518e-05 32.0752L0.00128891 32.0743L0.0053872 32.0713L0.0197538 32.0608L0.072863 32.0222C0.118986 31.9888 0.186396 31.9401 0.274161 31.8771C0.44968 31.7513 0.706673 31.5684 1.03768 31.3368C1.69958 30.8735 2.65811 30.2145 3.85354 29.4251C6.24246 27.8475 9.58718 25.7426 13.4082 23.6361C14.4846 23.0427 15.6071 22.4443 16.764 21.8546L7.59838 10.6949L10.6895 8.15617L20.4666 20.0604C26.2844 17.3939 32.6073 15.2492 38.1376 15.1182L38.5556 0L42.5541 0.11057L42.1324 15.3612ZM71.1885 32.7716C71.7424 33.1381 72.243 33.475 72.6837 33.7754C72.2693 34.0516 71.8056 34.3571 71.2975 34.6865C68.9589 36.2032 65.6906 38.222 61.9696 40.2332C54.4129 44.3178 45.4008 48.139 38.5337 48.0662C31.7017 47.9937 22.8014 44.0226 15.3539 39.8221C11.6866 37.7537 8.4697 35.6874 6.16909 34.1375C5.78396 33.878 5.42478 33.6332 5.09374 33.4055C5.39385 33.2036 5.7157 32.9888 6.05777 32.7629C8.38374 31.2269 11.6352 29.1811 15.3393 27.1391C22.8619 22.9919 31.842 19.096 38.7094 19.1119C45.5418 19.1276 54.4748 23.0248 61.9569 27.1634C65.6412 29.2013 68.8751 31.2408 71.1885 32.7716ZM39.1484 38.7797C41.019 38.7797 43.1696 36.9875 43.1696 33.9564C43.1696 30.9253 41.019 29.1331 39.1484 29.1331C37.2778 29.1331 35.1272 30.9253 35.1272 33.9564C35.1272 36.9875 37.2778 38.7797 39.1484 38.7797ZM39.1484 42.7797C43.5784 42.7797 47.1696 38.8294 47.1696 33.9564C47.1696 29.0834 43.5784 25.1331 39.1484 25.1331C34.7184 25.1331 31.1272 29.0834 31.1272 33.9564C31.1272 38.8294 34.7184 42.7797 39.1484 42.7797Z" fill="#717171"/>
</svg>
