<svg width="211" height="68" viewBox="0 0 211 68" fill="none" xmlns="http://www.w3.org/2000/svg">
<path d="M108.41 21.6328V51H103.957V21.6328H92.6133V17.9766H119.754V21.6328H108.41ZM126.645 37.7812V51H122.426V31.5469C122.426 30.6562 122.41 29.7188 122.379 28.7344C122.363 27.75 122.332 26.7188 122.285 25.6406H126.27C126.301 26.3594 126.324 27.0078 126.34 27.5859C126.371 28.1641 126.395 28.6719 126.41 29.1094C126.426 29.5312 126.434 29.8906 126.434 30.1875C126.449 30.4688 126.457 30.6797 126.457 30.8203H126.551C127.02 29.2891 127.535 28.1016 128.098 27.2578C128.645 26.4766 129.27 25.9375 129.973 25.6406C130.676 25.3281 131.543 25.1719 132.574 25.1719C133.152 25.1719 133.723 25.25 134.285 25.4062V29.2734C133.754 29.1172 133.004 29.0391 132.035 29.0391C130.285 29.0391 128.949 29.7969 128.027 31.3125C127.105 32.8125 126.645 34.9688 126.645 37.7812ZM144.785 51.4688C142.238 51.4688 140.324 50.7969 139.043 49.4531C137.762 48.1094 137.121 46.2656 137.121 43.9219C137.121 41.2969 137.98 39.2812 139.699 37.875C141.434 36.4688 144.223 35.7188 148.066 35.625L153.762 35.5312V34.1484C153.762 32.0859 153.324 30.6094 152.449 29.7188C151.574 28.8281 150.199 28.3828 148.324 28.3828C146.434 28.3828 145.059 28.7031 144.199 29.3438C143.34 29.9844 142.824 31.0078 142.652 32.4141L138.246 32.0156C138.965 27.4531 142.355 25.1719 148.418 25.1719C151.605 25.1719 154.004 25.9062 155.613 27.375C157.223 28.8281 158.027 30.9375 158.027 33.7031V44.625C158.027 45.875 158.191 46.8203 158.52 47.4609C158.848 48.0859 159.473 48.3984 160.395 48.3984C160.832 48.3984 161.293 48.3438 161.777 48.2344V50.8594C161.246 50.9844 160.707 51.0781 160.16 51.1406C159.613 51.2031 159.066 51.2344 158.52 51.2344C156.957 51.2344 155.816 50.8281 155.098 50.0156C154.395 49.1875 153.996 47.8984 153.902 46.1484H153.762C152.684 48.0859 151.426 49.4609 149.988 50.2734C148.566 51.0703 146.832 51.4688 144.785 51.4688ZM153.762 38.4844L149.145 38.5781C147.176 38.5938 145.676 38.7969 144.645 39.1875C143.613 39.5625 142.824 40.1406 142.277 40.9219C141.73 41.7031 141.457 42.7266 141.457 43.9922C141.457 45.3672 141.824 46.4297 142.559 47.1797C143.309 47.9297 144.371 48.3047 145.746 48.3047C147.309 48.3047 148.684 47.9531 149.871 47.25C151.074 46.5469 152.02 45.5859 152.707 44.3672C153.41 43.1328 153.762 41.8672 153.762 40.5703V38.4844ZM174.762 51.4688C171.215 51.4688 168.504 50.3516 166.629 48.1172C164.77 45.8672 163.84 42.5938 163.84 38.2969C163.84 34.0312 164.777 30.7812 166.652 28.5469C168.527 26.2969 171.215 25.1719 174.715 25.1719C177.309 25.1719 179.457 25.8438 181.16 27.1875C182.879 28.5312 183.957 30.3828 184.395 32.7422L180.059 33.0703C179.84 31.6641 179.285 30.5469 178.395 29.7188C177.504 28.8906 176.238 28.4766 174.598 28.4766C172.363 28.4766 170.746 29.2188 169.746 30.7031C168.746 32.1875 168.246 34.6875 168.246 38.2031C168.246 41.5781 168.777 44.0781 169.84 45.7031C170.902 47.3281 172.504 48.1406 174.645 48.1406C176.145 48.1406 177.395 47.7344 178.395 46.9219C179.41 46.1094 180.035 44.8594 180.27 43.1719L184.535 43.4531C184.316 45.0781 183.77 46.4922 182.895 47.6953C182.035 48.8984 180.91 49.8281 179.52 50.4844C178.145 51.1406 176.559 51.4688 174.762 51.4688ZM193.254 41.9766V51H189.035V16.2188H193.254V37.9453L204.387 25.6406H209.332L199.043 36.5391L209.871 51H204.926L196.348 39.4219L193.254 41.9766Z" fill="#000"/>
<path fill-rule="evenodd" clip-rule="evenodd" d="M42.951 15.3612C47.4254 15.9738 52.2479 17.6519 56.8041 19.6895L69.2025 8.28562L71.9104 11.2297L60.6986 21.5422C62.0884 22.2411 63.4327 22.9558 64.7116 23.6631C68.5119 25.7652 71.8385 27.8636 74.2144 29.4357C75.4034 30.2224 76.3567 30.879 77.015 31.3404C77.3442 31.5712 77.5998 31.7533 77.7743 31.8787C77.8616 31.9414 77.9286 31.9899 77.9745 32.0232L78.0273 32.0616L78.0416 32.0721L78.0457 32.0751L78.047 32.076C78.0474 32.0763 78.0477 32.0765 76.8922 33.6513L77 33.801C78.1687 35.4239 78.1684 35.4242 78.168 35.4245L78.1667 35.4254L78.1626 35.4284L78.1481 35.4387L78.0947 35.4769C78.0483 35.51 77.9805 35.5581 77.8922 35.6203C77.7156 35.7447 77.4571 35.9254 77.1242 36.1543C76.4585 36.6121 75.4945 37.2631 74.2926 38.0426C71.8907 39.6003 68.5286 41.6774 64.6902 43.7521C62.5744 44.8957 60.2817 46.0569 57.9015 47.1344L67.3784 58.8702L64.2664 61.3833L54.0703 48.7567C49.2735 50.6398 44.3225 51.9963 39.891 52.0645L39.3475 67.1787L35.3501 67.035L35.8984 51.7883C31.2049 51.106 26.1373 49.2455 21.4004 47.0302L10.0308 57.3148L7.34749 54.3484L17.5479 45.1213C16.3959 44.5199 15.2785 43.9102 14.2074 43.3061C10.4246 41.1726 7.1156 39.0467 4.75279 37.4549C3.57044 36.6583 2.62261 35.9939 1.96817 35.527C1.64089 35.2935 1.38682 35.1092 1.21331 34.9824C1.12654 34.919 1.05991 34.87 1.01432 34.8363L0.961818 34.7974L0.947615 34.7869L0.943566 34.7838L0.942307 34.7829C0.941923 34.7826 0.941616 34.7824 1.88007 33.5253C0.817889 32.0758 0.818214 32.0755 0.818619 32.0752L0.819892 32.0743L0.823991 32.0713L0.838357 32.0608L0.891467 32.0222C0.93759 31.9888 1.005 31.9401 1.09276 31.8771C1.26828 31.7513 1.52528 31.5684 1.85628 31.3368C2.51819 30.8735 3.47671 30.2145 4.67214 29.4251C7.06106 27.8475 10.4058 25.7426 14.2268 23.6361C15.3032 23.0427 16.4257 22.4443 17.5826 21.8546L8.41699 10.6949L11.5081 8.15617L21.2852 20.0604C27.103 17.3939 33.4259 15.2492 38.9562 15.1182L39.3742 0L43.3727 0.11057L42.951 15.3612ZM72.0071 32.7716C72.561 33.1381 73.0616 33.475 73.5023 33.7754C73.0879 34.0516 72.6242 34.3571 72.1161 34.6865C69.7775 36.2032 66.5092 38.222 62.7882 40.2332C55.2315 44.3178 46.2194 48.139 39.3523 48.0662C32.5203 47.9937 23.62 44.0226 16.1725 39.8221C12.5052 37.7537 9.28831 35.6874 6.9877 34.1375C6.60257 33.878 6.24338 33.6332 5.91235 33.4055C6.21245 33.2036 6.5343 32.9888 6.87638 32.7629C9.20234 31.2269 12.4538 29.1811 16.1579 27.1391C23.6805 22.9919 32.6606 19.096 39.528 19.1119C46.3604 19.1276 55.2934 23.0248 62.7755 27.1634C66.4598 29.2013 69.6937 31.2408 72.0071 32.7716ZM39.967 38.7797C41.8376 38.7797 43.9882 36.9875 43.9882 33.9564C43.9882 30.9253 41.8376 29.1331 39.967 29.1331C38.0964 29.1331 35.9458 30.9253 35.9458 33.9564C35.9458 36.9875 38.0964 38.7797 39.967 38.7797ZM39.967 42.7797C44.397 42.7797 47.9882 38.8294 47.9882 33.9564C47.9882 29.0834 44.397 25.1331 39.967 25.1331C35.537 25.1331 31.9458 29.0834 31.9458 33.9564C31.9458 38.8294 35.537 42.7797 39.967 42.7797Z" fill="#97AF8F"/>
</svg>
