<svg width="44" height="43" viewBox="0 0 44 43" fill="none" xmlns="http://www.w3.org/2000/svg">
<path d="M21.9877 1.91677C21.8548 1.9188 21.7242 1.95189 21.6063 2.01339L3.69578 11.3951C3.55792 11.4675 3.4425 11.5762 3.36205 11.7095C3.28159 11.8428 3.23916 11.9956 3.23936 12.1513V14.71C3.23938 14.9362 3.32924 15.1531 3.48918 15.313C3.64912 15.473 3.86604 15.5628 4.09224 15.5629H4.94512V16.7572C4.94512 17.7908 5.68226 18.6716 6.65088 18.9078V34.3362H4.17719L4.31878 34.3479C3.26802 34.171 2.38647 35.0722 2.38647 36.0586V38.4024C2.38647 39.4089 3.18311 40.2964 4.17719 40.2964H39.7433C40.7374 40.2964 41.534 39.4754 41.534 38.489V36.1453C41.534 35.1589 40.7374 34.3362 39.7433 34.3362H37.3546V18.9078C38.3232 18.6716 39.0603 17.7908 39.0603 16.7572V15.5629H39.9132C40.1394 15.5628 40.3563 15.473 40.5163 15.313C40.6762 15.1531 40.7661 14.9362 40.7661 14.71V12.1513C40.7663 11.9956 40.7239 11.8428 40.6434 11.7095C40.563 11.5762 40.4475 11.4675 40.3097 11.3951L22.3992 2.01339C22.2723 1.94717 22.1308 1.91395 21.9877 1.91677ZM22.0027 3.73414L39.0603 12.6677V13.8571H38.3507C38.2586 13.8419 38.1646 13.8419 38.0725 13.8571H29.8103C29.7624 13.8491 29.7139 13.8452 29.6653 13.8454C29.624 13.8463 29.5828 13.8502 29.5421 13.8571H26.4104C26.3183 13.8419 26.2243 13.8419 26.1322 13.8571H17.8699C17.822 13.8491 17.7736 13.8452 17.725 13.8454C17.6837 13.8463 17.6425 13.8502 17.6017 13.8571H14.4701C14.378 13.8419 14.284 13.8419 14.1919 13.8571H5.92959C5.88171 13.8491 5.83322 13.8452 5.78467 13.8454C5.74335 13.8463 5.70216 13.8502 5.6614 13.8571H4.94512V12.6677L22.0027 3.73414ZM6.65088 15.5629H13.4739V16.7572C13.4739 17.0826 13.2879 17.2686 12.9625 17.2686H7.16227C6.83692 17.2686 6.65088 17.0826 6.65088 16.7572V15.5629ZM15.1797 15.5629H16.8854V16.7572C16.8854 17.7908 17.6226 18.6716 18.5912 18.9078V34.3362H13.4739V18.9078C14.4425 18.6716 15.1797 17.7908 15.1797 16.7572V15.5629ZM18.5912 15.5629H25.4143V16.7572C25.4143 17.0826 25.2282 17.2686 24.9029 17.2686H19.1026C18.7772 17.2686 18.5912 17.0826 18.5912 16.7572V15.5629ZM27.12 15.5629H28.8258V16.7572C28.8258 17.7908 29.5629 18.6716 30.5315 18.9078V34.3362H25.4143V18.9078C26.3829 18.6716 27.12 17.7908 27.12 16.7572V15.5629ZM30.5315 15.5629H37.3546V16.7572C37.3546 17.0826 37.1685 17.2686 36.8432 17.2686H31.0429C30.7176 17.2686 30.5315 17.0826 30.5315 16.7572V15.5629ZM8.35664 18.9744H11.7682V34.3262H8.35664V18.9744ZM20.297 18.9744H23.7085V34.3262H20.297V18.9744ZM32.2373 18.9744H35.6488V34.3262H32.2373V18.9744ZM4.07891 36.0353C4.11151 36.0394 4.14433 36.0417 4.17719 36.042H39.7433C39.7727 36.042 39.8283 36.0895 39.8283 36.1453V38.489C39.8283 38.5448 39.7727 38.5906 39.7433 38.5906H4.17719C4.14781 38.5906 4.09224 38.6104 4.09224 38.4024V36.0586C4.09224 36.0389 4.08484 36.0386 4.07891 36.0353Z" fill="white"/>
</svg>
