<svg width="30" height="28" viewBox="0 0 30 28" fill="none" xmlns="http://www.w3.org/2000/svg">
<path d="M3.75 6.41667C3.75 16.4038 12.4245 24.5 23.125 24.5C23.6078 24.5 24.0864 24.4835 24.5604 24.4511C25.1043 24.4139 25.3761 24.3954 25.6238 24.2624C25.8288 24.1522 26.0231 23.9569 26.1259 23.758C26.25 23.5179 26.25 23.2378 26.25 22.6777V19.3908C26.25 18.9197 26.25 18.6842 26.1669 18.4823C26.0936 18.3039 25.9744 18.1452 25.8199 18.0199C25.645 17.878 25.4078 17.7975 24.9335 17.6365L20.925 16.276C20.3731 16.0888 20.0971 15.9951 19.8354 16.011C19.6045 16.025 19.3824 16.0986 19.1936 16.2234C18.9796 16.3649 18.8286 16.5999 18.5265 17.07L17.5 18.6667C14.1876 17.2665 11.5024 14.757 10 11.6667L11.7108 10.7086C12.2143 10.4267 12.4661 10.2857 12.6178 10.0859C12.7515 9.90976 12.8304 9.70243 12.8454 9.48698C12.8624 9.24265 12.762 8.98512 12.5614 8.47006L11.1037 4.72874C10.9312 4.28605 10.845 4.0647 10.693 3.90145C10.5588 3.75724 10.3886 3.64601 10.1975 3.57753C9.9812 3.5 9.72885 3.5 9.22415 3.5H5.70251C5.10235 3.5 4.80226 3.5 4.54497 3.61579C4.33187 3.7117 4.12268 3.89318 4.00463 4.08453C3.8621 4.31558 3.84219 4.56939 3.80236 5.07702C3.76766 5.51934 3.75 5.96608 3.75 6.41667Z" stroke="#EEB858" stroke-width="2" stroke-linecap="round" stroke-linejoin="round"/>
</svg>
